<mxfile host="app.diagrams.net" modified="2023-11-30T04:31:16.424Z" agent="Mozilla/5.0 (Macintosh; Intel Mac OS X 10_15_7) AppleWebKit/537.36 (KHTML, like Gecko) Chrome/119.0.0.0 Safari/537.36" version="22.1.5" etag="DU7pA2e1EPlAjz-3GT_N" type="github">
  <diagram name="第 1 页" id="pdfkfI6EVlpCFb5KzcIX">
    <mxGraphModel>
      <root>
        <mxCell id="0" />
        <mxCell id="1" parent="0" />
      </root>
    </mxGraphModel>
  </diagram>
</mxfile>
